solid design_domain
facet normal 0 0 0
 outer loop
  vertex -2 -2 -2
  vertex 2 2 -2
  vertex 2 -2 -2
 endloop
endfacet
facet normal 0 0 0
 outer loop
  vertex -2 -2 -2
  vertex -2 2 -2
  vertex 2 2 -2
 endloop
endfacet
facet normal 0 0 0
 outer loop
  vertex -2 -2 2
  vertex 2 -2 2
  vertex 2 2 2
 endloop
endfacet
facet normal 0 0 0
 outer loop
  vertex -2 -2 2
  vertex 2 2 2
  vertex -2 2 2
 endloop
endfacet
facet normal 0 0 0
 outer loop
  vertex -2 -2 -2
  vertex 2 -2 -2
  vertex 2 -2 2
 endloop
endfacet
facet normal 0 0 0
 outer loop
  vertex -2 -2 -2
  vertex 2 -2 2
  vertex -2 -2 2
 endloop
endfacet
facet normal 0 0 0
 outer loop
  vertex 2 -2 -2
  vertex 2 2 -2
  vertex 2 2 2
 endloop
endfacet
facet normal 0 0 0
 outer loop
  vertex 2 -2 -2
  vertex 2 2 2
  vertex 2 -2 2
 endloop
endfacet
facet normal 0 0 0
 outer loop
  vertex 2 2 -2
  vertex -2 2 -2
  vertex -2 2 2
 endloop
endfacet
facet normal 0 0 0
 outer loop
  vertex 2 2 -2
  vertex -2 2 2
  vertex 2 2 2
 endloop
endfacet
facet normal 0 0 0
 outer loop
  vertex -2 2 -2
  vertex -2 -2 -2
  vertex -2 -2 2
 endloop
endfacet
facet normal 0 0 0
 outer loop
  vertex -2 2 -2
  vertex -2 -2 2
  vertex -2 2 2
 endloop
endfacet
endsolid design_domain
