solid fixed_root
facet normal 0 0 0
 outer loop
  vertex 1 -0.25 -0.25
  vertex 1.5 0.25 -0.25
  vertex 1.5 -0.25 -0.25
 endloop
endfacet
facet normal 0 0 0
 outer loop
  vertex 1 -0.25 -0.25
  vertex 1 0.25 -0.25
  vertex 1.5 0.25 -0.25
 endloop
endfacet
facet normal 0 0 0
 outer loop
  vertex 1 -0.25 0.25
  vertex 1.5 -0.25 0.25
  vertex 1.5 0.25 0.25
 endloop
endfacet
facet normal 0 0 0
 outer loop
  vertex 1 -0.25 0.25
  vertex 1.5 0.25 0.25
  vertex 1 0.25 0.25
 endloop
endfacet
facet normal 0 0 0
 outer loop
  vertex 1 -0.25 -0.25
  vertex 1.5 -0.25 -0.25
  vertex 1.5 -0.25 0.25
 endloop
endfacet
facet normal 0 0 0
 outer loop
  vertex 1 -0.25 -0.25
  vertex 1.5 -0.25 0.25
  vertex 1 -0.25 0.25
 endloop
endfacet
facet normal 0 0 0
 outer loop
  vertex 1.5 -0.25 -0.25
  vertex 1.5 0.25 -0.25
  vertex 1.5 0.25 0.25
 endloop
endfacet
facet normal 0 0 0
 outer loop
  vertex 1.5 -0.25 -0.25
  vertex 1.5 0.25 0.25
  vertex 1.5 -0.25 0.25
 endloop
endfacet
facet normal 0 0 0
 outer loop
  vertex 1.5 0.25 -0.25
  vertex 1 0.25 -0.25
  vertex 1 0.25 0.25
 endloop
endfacet
facet normal 0 0 0
 outer loop
  vertex 1.5 0.25 -0.25
  vertex 1 0.25 0.25
  vertex 1.5 0.25 0.25
 endloop
endfacet
facet normal 0 0 0
 outer loop
  vertex 1 0.25 -0.25
  vertex 1 -0.25 -0.25
  vertex 1 -0.25 0.25
 endloop
endfacet
facet normal 0 0 0
 outer loop
  vertex 1 0.25 -0.25
  vertex 1 -0.25 0.25
  vertex 1 0.25 0.25
 endloop
endfacet
endsolid fixed_root
