solid box
facet normal 0 0 0
 outer loop
  vertex -0.4 -0.4 -0.4
  vertex 0.4 0.4 -0.4
  vertex 0.4 -0.4 -0.4
 endloop
endfacet
facet normal 0 0 0
 outer loop
  vertex -0.4 -0.4 -0.4
  vertex -0.4 0.4 -0.4
  vertex 0.4 0.4 -0.4
 endloop
endfacet
facet normal 0 0 0
 outer loop
  vertex -0.4 -0.4 0.4
  vertex 0.4 -0.4 0.4
  vertex 0.4 0.4 0.4
 endloop
endfacet
facet normal 0 0 0
 outer loop
  vertex -0.4 -0.4 0.4
  vertex 0.4 0.4 0.4
  vertex -0.4 0.4 0.4
 endloop
endfacet
facet normal 0 0 0
 outer loop
  vertex -0.4 -0.4 -0.4
  vertex 0.4 -0.4 -0.4
  vertex 0.4 -0.4 0.4
 endloop
endfacet
facet normal 0 0 0
 outer loop
  vertex -0.4 -0.4 -0.4
  vertex 0.4 -0.4 0.4
  vertex -0.4 -0.4 0.4
 endloop
endfacet
facet normal 0 0 0
 outer loop
  vertex 0.4 -0.4 -0.4
  vertex 0.4 0.4 -0.4
  vertex 0.4 0.4 0.4
 endloop
endfacet
facet normal 0 0 0
 outer loop
  vertex 0.4 -0.4 -0.4
  vertex 0.4 0.4 0.4
  vertex 0.4 -0.4 0.4
 endloop
endfacet
facet normal 0 0 0
 outer loop
  vertex 0.4 0.4 -0.4
  vertex -0.4 0.4 -0.4
  vertex -0.4 0.4 0.4
 endloop
endfacet
facet normal 0 0 0
 outer loop
  vertex 0.4 0.4 -0.4
  vertex -0.4 0.4 0.4
  vertex 0.4 0.4 0.4
 endloop
endfacet
facet normal 0 0 0
 outer loop
  vertex -0.4 0.4 -0.4
  vertex -0.4 -0.4 -0.4
  vertex -0.4 -0.4 0.4
 endloop
endfacet
facet normal 0 0 0
 outer loop
  vertex -0.4 0.4 -0.4
  vertex -0.4 -0.4 0.4
  vertex -0.4 0.4 0.4
 endloop
endfacet
endsolid box
