solid sphere
facet normal 0 0 0
 outer loop
  vertex 0 0 0.6
  vertex 0.6 0 0
  vertex 0 0.6 0
 endloop
endfacet
facet normal 0 0 0
 outer loop
  vertex 0 0 0.6
  vertex 0 0.6 0
  vertex -0.6 0 0
 endloop
endfacet
facet normal 0 0 0
 outer loop
  vertex 0 0 0.6
  vertex -0.6 0 0
  vertex 0 -0.6 0
 endloop
endfacet
facet normal 0 0 0
 outer loop
  vertex 0 0 0.6
  vertex 0 -0.6 0
  vertex 0.6 0 0
 endloop
endfacet
facet normal 0 0 0
 outer loop
  vertex 0 0 -0.6
  vertex 0 0.6 0
  vertex 0.6 0 0
 endloop
endfacet
facet normal 0 0 0
 outer loop
  vertex 0 0 -0.6
  vertex -0.6 0 0
  vertex 0 0.6 0
 endloop
endfacet
facet normal 0 0 0
 outer loop
  vertex 0 0 -0.6
  vertex 0 -0.6 0
  vertex -0.6 0 0
 endloop
endfacet
facet normal 0 0 0
 outer loop
  vertex 0 0 -0.6
  vertex 0.6 0 0
  vertex 0 -0.6 0
 endloop
endfacet
endsolid sphere
