solid multi_component
facet normal 0 0 0
 outer loop
  vertex -0.8 -0.2 -0.2
  vertex -0.5 0.3 -0.2
  vertex -0.2 -0.2 -0.2
 endloop
endfacet
facet normal 0 0 0
 outer loop
  vertex -0.8 -0.2 -0.2
  vertex -0.2 -0.2 -0.2
  vertex -0.5 0 0.3
 endloop
endfacet
facet normal 0 0 0
 outer loop
  vertex -0.2 -0.2 -0.2
  vertex -0.5 0.3 -0.2
  vertex -0.5 0 0.3
 endloop
endfacet
facet normal 0 0 0
 outer loop
  vertex -0.5 0.3 -0.2
  vertex -0.8 -0.2 -0.2
  vertex -0.5 0 0.3
 endloop
endfacet
facet normal 0 0 0
 outer loop
  vertex 0.2 -0.2 -0.2
  vertex 0.5 0.3 -0.2
  vertex 0.8 -0.2 -0.2
 endloop
endfacet
facet normal 0 0 0
 outer loop
  vertex 0.2 -0.2 -0.2
  vertex 0.8 -0.2 -0.2
  vertex 0.5 0 0.3
 endloop
endfacet
facet normal 0 0 0
 outer loop
  vertex 0.8 -0.2 -0.2
  vertex 0.5 0.3 -0.2
  vertex 0.5 0 0.3
 endloop
endfacet
facet normal 0 0 0
 outer loop
  vertex 0.5 0.3 -0.2
  vertex 0.2 -0.2 -0.2
  vertex 0.5 0 0.3
 endloop
endfacet
endsolid multi_component
